<?xml version="1.0" encoding="UTF-8"?>
<svg xmlns="http://www.w3.org/2000/svg" viewBox="0 0 26 26" version="1.1" width="26px" height="26px">
    <g id="surface1">
        <path style=" "
              d="M 15 0 L 0 2.875 L 0 23.125 L 15 26 Z M 17 4 C 16.648438 4 16.3125 4.074219 16 4.1875 L 16 9.8125 C 16.3125 9.925781 16.648438 10 17 10 C 18.109375 10 19.074219 9.394531 19.59375 8.5 C 20.386719 8.953125 21.046875 9.613281 21.5 10.40625 C 20.605469 10.925781 20 11.890625 20 13 C 20 14.109375 20.605469 15.074219 21.5 15.59375 C 21.046875 16.386719 20.386719 17.046875 19.59375 17.5 C 19.074219 16.605469 18.109375 16 17 16 C 16.648438 16 16.3125 16.074219 16 16.1875 L 16 21.8125 C 16.3125 21.921875 16.648438 22 17 22 C 18.613281 22 19.933594 20.722656 20 19.125 C 21.355469 18.457031 22.457031 17.355469 23.125 16 C 24.722656 15.933594 26 14.613281 26 13 C 26 11.386719 24.722656 10.066406 23.125 10 C 22.457031 8.644531 21.355469 7.542969 20 6.875 C 19.933594 5.277344 18.613281 4 17 4 Z M 7.375 7.875 C 7.890625 7.875 8.351563 7.90625 8.75 7.96875 C 9.148438 8.03125 9.507813 8.121094 9.84375 8.25 L 9.84375 10.3125 C 9.679688 10.199219 9.507813 10.085938 9.3125 10 C 9.117188 9.914063 8.894531 9.839844 8.6875 9.78125 C 8.480469 9.722656 8.296875 9.683594 8.09375 9.65625 C 7.890625 9.628906 7.683594 9.625 7.5 9.625 C 7.246094 9.625 7.019531 9.640625 6.8125 9.6875 C 6.605469 9.738281 6.421875 9.820313 6.28125 9.90625 C 6.140625 9.992188 6.046875 10.097656 5.96875 10.21875 C 5.890625 10.339844 5.84375 10.472656 5.84375 10.625 C 5.84375 10.789063 5.882813 10.929688 5.96875 11.0625 C 6.054688 11.195313 6.183594 11.320313 6.34375 11.4375 C 6.503906 11.554688 6.707031 11.667969 6.9375 11.78125 C 7.167969 11.894531 7.429688 12.007813 7.71875 12.125 C 8.113281 12.289063 8.464844 12.46875 8.78125 12.65625 C 9.097656 12.84375 9.367188 13.046875 9.59375 13.28125 C 9.820313 13.515625 9.972656 13.792969 10.09375 14.09375 C 10.214844 14.394531 10.28125 14.753906 10.28125 15.15625 C 10.28125 15.707031 10.179688 16.15625 9.96875 16.53125 C 9.757813 16.90625 9.484375 17.207031 9.125 17.4375 C 8.765625 17.667969 8.351563 17.835938 7.875 17.9375 C 7.398438 18.039063 6.871094 18.09375 6.34375 18.09375 C 5.800781 18.09375 5.300781 18.0625 4.8125 17.96875 C 4.324219 17.875 3.890625 17.714844 3.53125 17.53125 L 3.53125 15.34375 C 3.929688 15.679688 4.375 15.925781 4.84375 16.09375 C 5.3125 16.261719 5.769531 16.34375 6.25 16.34375 C 6.53125 16.34375 6.789063 16.332031 7 16.28125 C 7.210938 16.230469 7.390625 16.152344 7.53125 16.0625 C 7.671875 15.972656 7.777344 15.871094 7.84375 15.75 C 7.910156 15.628906 7.9375 15.484375 7.9375 15.34375 C 7.9375 15.152344 7.890625 14.964844 7.78125 14.8125 C 7.671875 14.660156 7.503906 14.535156 7.3125 14.40625 C 7.121094 14.277344 6.886719 14.148438 6.625 14.03125 C 6.363281 13.910156 6.085938 13.78125 5.78125 13.65625 C 5.007813 13.335938 4.441406 12.964844 4.0625 12.5 C 3.683594 12.035156 3.5 11.46875 3.5 10.8125 C 3.5 10.296875 3.605469 9.839844 3.8125 9.46875 C 4.019531 9.097656 4.300781 8.800781 4.65625 8.5625 C 5.015625 8.324219 5.40625 8.144531 5.875 8.03125 C 6.34375 7.917969 6.851563 7.875 7.375 7.875 Z "/>
    </g>
</svg>
